<svg width="44" height="43" viewBox="0 0 44 43" fill="none" xmlns="http://www.w3.org/2000/svg">
<g opacity="0.5">
<path d="M30.8801 7.94267L35.5573 12.6177L30.8801 7.94267ZM33.8878 3.82412L21.2407 16.4712C20.5872 17.1238 20.1416 17.9552 19.9599 18.8607L18.7917 24.7083L24.6393 23.5379C25.5448 23.3568 26.3751 22.913 27.0288 22.2593L39.6759 9.61217C40.0559 9.23212 40.3574 8.78093 40.5631 8.28438C40.7688 7.78782 40.8746 7.25561 40.8746 6.71814C40.8746 6.18068 40.7688 5.64847 40.5631 5.15191C40.3574 4.65535 40.0559 4.20417 39.6759 3.82412C39.2958 3.44408 38.8447 3.14261 38.3481 2.93692C37.8515 2.73124 37.3193 2.62538 36.7819 2.62538C36.2444 2.62538 35.7122 2.73124 35.2156 2.93692C34.7191 3.14261 34.2679 3.44408 33.8878 3.82412V3.82412Z" stroke="url(#paint0_linear_5_67)" stroke-width="5" stroke-linecap="round" stroke-linejoin="round"/>
<path d="M36.4583 29.125V35.75C36.4583 36.9214 35.993 38.0448 35.1647 38.8731C34.3364 39.7013 33.213 40.1667 32.0417 40.1667H7.75C6.57863 40.1667 5.45523 39.7013 4.62695 38.8731C3.79866 38.0448 3.33334 36.9214 3.33334 35.75V11.4583C3.33334 10.287 3.79866 9.16357 4.62695 8.33528C5.45523 7.507 6.57863 7.04167 7.75 7.04167H14.375" stroke="url(#paint1_linear_5_67)" stroke-width="5" stroke-linecap="round" stroke-linejoin="round"/>
</g>
<defs>
<linearGradient id="paint0_linear_5_67" x1="40.8746" y1="24.7083" x2="21.645" y2="0.370876" gradientUnits="userSpaceOnUse">
<stop stop-color="#FF6A64"/>
<stop offset="1" stop-color="#FFB199"/>
</linearGradient>
<linearGradient id="paint1_linear_5_67" x1="36.4583" y1="40.1667" x2="7.61345" y2="3.65986" gradientUnits="userSpaceOnUse">
<stop stop-color="#FF6A64"/>
<stop offset="1" stop-color="#FFB199"/>
</linearGradient>
</defs>
</svg>
