<svg width="39" height="43" viewBox="0 0 39 43" fill="none" xmlns="http://www.w3.org/2000/svg">
<path d="M34.375 0.25H6.75C4.18725 0.25 0.375 1.94788 0.375 6.625V36.375C0.375 41.0521 4.18725 42.75 6.75 42.75H38.625V38.5H6.7755C5.79375 38.4745 4.625 38.0877 4.625 36.375C4.625 36.1604 4.64413 35.9691 4.676 35.7949C4.914 34.5709 5.917 34.2713 6.7755 34.25H38.625V4.5C38.625 3.37283 38.1772 2.29183 37.3802 1.4948C36.5832 0.697766 35.5022 0.25 34.375 0.25ZM34.375 19.375L30.125 17.25L25.875 19.375V4.5H34.375V19.375Z" fill="white"/>
</svg>
